<?xml version="1.0" encoding="UTF-8" standalone="no"?>
<svg
   xmlns:dc="http://purl.org/dc/elements/1.1/"
   xmlns:cc="http://creativecommons.org/ns#"
   xmlns:rdf="http://www.w3.org/1999/02/22-rdf-syntax-ns#"
   xmlns:svg="http://www.w3.org/2000/svg"
   xmlns="http://www.w3.org/2000/svg"
   xmlns:sodipodi="http://sodipodi.sourceforge.net/DTD/sodipodi-0.dtd"
   xmlns:inkscape="http://www.inkscape.org/namespaces/inkscape"
   width="953"
   height="659"
   viewBox="0 0 252.14791 174.36042"
   version="1.1"
   id="svg8"
   inkscape:export-filename="C:\Users\alumnado.DESKTOP-AMVVTGC\Desktop\pokedesBack.png"
   inkscape:export-xdpi="96"
   inkscape:export-ydpi="96"
   inkscape:version="1.0.1 (3bc2e813f5, 2020-09-07)"
   sodipodi:docname="pokedesBacks.svg">
  <defs
     id="defs2" />
  <sodipodi:namedview
     id="base"
     pagecolor="#fafafa"
     bordercolor="#666666"
     borderopacity="1.0"
     inkscape:pageopacity="0"
     inkscape:pageshadow="2"
     inkscape:zoom="0.7"
     inkscape:cx="575.6818"
     inkscape:cy="303.55379"
     inkscape:document-units="mm"
     inkscape:current-layer="svg8"
     inkscape:document-rotation="0"
     showgrid="false"
     units="px"
     inkscape:window-width="1600"
     inkscape:window-height="837"
     inkscape:window-x="-8"
     inkscape:window-y="-8"
     inkscape:window-maximized="1" />
  <metadata
     id="metadata5">
    <rdf:RDF>
      <cc:Work
         rdf:about="">
        <dc:format>image/svg+xml</dc:format>
        <dc:type
           rdf:resource="http://purl.org/dc/dcmitype/StillImage" />
        <dc:title></dc:title>
      </cc:Work>
    </rdf:RDF>
  </metadata>
  <rect
     style="fill:#333333;fill-opacity:1;stroke:#000000;stroke-width:0.318923;stroke-opacity:0.0200803"
     id="rect955"
     width="257.24823"
     height="182.35777"
     x="-0.63882053"
     y="-3.6728151" />
  <g
     inkscape:groupmode="layer"
     id="layer2"
     inkscape:label="Background">
    <path
       id="path858"
       style="fill:#cccccc;stroke:#000000;stroke-width:0.226183;stroke-opacity:0.0200803"
       d="M 0.35625854,37.768957 294.91472,-152.31841 l 3.39141,5.74131 c -14.05802,7.20715 -47.78363,32.53451 -88.72565,58.155809 C 151.9965,-52.38555 51.980135,13.385806 7.4334813,39.719785 -1.1154381,44.773523 43.308448,16.094252 44.655511,13.708887 45.863447,11.569878 3.8374428,35.805824 0.35625854,37.768957 Z"
       sodipodi:nodetypes="cccsssc" />
    <path
       id="path846"
       style="fill:#cccccc;stroke:#000000;stroke-width:0.226183;stroke-opacity:0.0200803"
       d="m 16.621288,165.07516 294.558442,-190.087343 3.39142,5.741302 C 300.51313,-12.063722 266.78753,13.26363 225.8455,38.88493 168.26152,74.920672 68.245164,140.69202 23.698511,167.026 c -8.54892,5.05373 35.874968,-23.62554 37.22203,-26.01089 1.207937,-2.13901 -40.818068,22.09693 -44.299253,24.06005 z"
       sodipodi:nodetypes="cccsssc" />
    <path
       id="path13"
       style="fill:#cccccc;stroke:#000000;stroke-width:0.209776;stroke-opacity:0.0200803"
       d="m -12.105676,113.48173 290.418096,-183.748139 3.85574,4.478759 c -13.98081,7.218698 -47.00231,31.220132 -87.42051,56.095021 C 137.90047,25.293295 39.369222,88.705406 -4.7070951,114.48714 -13.165754,119.43489 30.632984,91.713557 31.863226,89.612514 32.966406,87.728465 -8.6551279,111.54581 -12.105676,113.48173 Z"
       sodipodi:nodetypes="cccsssc" />
    <path
       id="path868"
       style="fill:#e6e6e6;stroke:#000000;stroke-width:0.235445;stroke-opacity:0.0200803"
       d="m 195.04177,105.80352 240.55479,-156.558768 5.60845,6.871427 C 405.75112,-28.030929 230.54441,87.231145 195.04177,105.80352 Z"
       sodipodi:nodetypes="cccc"
       inkscape:transform-center-x="-0.35528675"
       inkscape:transform-center-y="11.861505" />
    <path
       id="path866"
       style="fill:#e6e6e6;stroke:#000000;stroke-width:0.235445;stroke-opacity:0.0200803"
       d="m 79.696401,47.057642 240.554779,-156.558782 5.60844,6.87142 C 290.40574,-86.776815 115.19903,28.485258 79.696401,47.057642 Z"
       sodipodi:nodetypes="cccc"
       inkscape:transform-center-x="-0.35528561"
       inkscape:transform-center-y="11.861505" />
    <path
       id="path864"
       style="fill:#e6e6e6;stroke:#000000;stroke-width:0.235445;stroke-opacity:0.0200803"
       d="m 79.696401,47.057642 240.554779,-156.558782 5.60844,6.87142 C 290.40574,-86.776815 115.19903,28.485258 79.696401,47.057642 Z"
       sodipodi:nodetypes="cccc"
       inkscape:transform-center-x="-0.35528561"
       inkscape:transform-center-y="11.861505" />
    <path
       id="path862"
       style="fill:#e6e6e6;stroke:#000000;stroke-width:0.235445;stroke-opacity:0.0200803"
       d="m 67.952144,83.883419 240.554776,-156.558774 5.60845,6.871426 C 278.6615,-49.951036 103.45477,65.311038 67.952144,83.883419 Z"
       sodipodi:nodetypes="cccc" />
    <path
       id="path860"
       style="fill:#e6e6e6;stroke:#000000;stroke-width:0.235445;stroke-opacity:0.0200803"
       d="m 32.719373,138.68368 240.554777,-156.558767 5.60845,6.871425 C 243.42873,4.8492296 68.222005,120.1113 32.719373,138.68368 Z"
       sodipodi:nodetypes="cccc" />
    <path
       id="path856"
       style="fill:#e6e6e6;stroke:#000000;stroke-width:0.300171;stroke-opacity:0.0200803"
       d="M -2.6521734,83.850033 291.86075,-106.20796 l 5.97393,10.113194 C 255.04083,-78.065625 40.429372,62.066994 -2.6521734,83.850033 Z"
       sodipodi:nodetypes="cccc" />
    <path
       id="path854"
       style="fill:#cccccc;stroke:#000000;stroke-width:0.300171;stroke-opacity:0.0200803"
       d="m 133.80267,158.86399 294.51293,-190.057992 5.97393,10.113194 C 391.49568,-3.0516671 176.8842,137.08094 133.80267,158.86399 Z"
       sodipodi:nodetypes="cccc" />
    <path
       id="path844"
       style="fill:#cccccc;stroke:#000000;stroke-width:0.300171;stroke-opacity:0.0200803"
       d="M 19.319978,138.71417 313.83291,-51.343815 319.80684,-41.23062 C 277.01299,-23.201481 62.401524,116.93114 19.319978,138.71417 Z"
       sodipodi:nodetypes="cccc" />
    <path
       id="rect10"
       style="fill:#e6e6e6;stroke:#000000;stroke-width:0.300171;stroke-opacity:0.0200803"
       d="m -28.125255,73.443882 294.512945,-190.058002 5.97392,10.1132 C 229.56777,-88.471776 14.956292,51.660843 -28.125255,73.443882 Z"
       sodipodi:nodetypes="cccc" />
    <path
       id="path852"
       style="fill:#e6e6e6;stroke:#000000;stroke-width:0.240004;stroke-opacity:0.0200803"
       d="m 108.64255,143.19053 294.57797,-190.099945 3.81827,6.463909 C 375.60724,-22.302284 205.3371,87.716292 125.31131,136.87379 c -11.03926,6.7811 -12.27827,6.60955 -16.66876,6.31674 z"
       sodipodi:nodetypes="cccsc" />
    <path
       id="path850"
       style="fill:#e6e6e6;stroke:#000000;stroke-width:0.240004;stroke-opacity:0.0200803"
       d="m 180.12008,132.03064 294.57798,-190.099952 3.81826,6.463909 c -31.43155,18.143222 -201.7017,128.161799 -281.72748,177.319293 -11.03927,6.78109 -12.27827,6.60955 -16.66876,6.31675 z"
       sodipodi:nodetypes="cccsc" />
    <path
       id="path848"
       style="fill:#e6e6e6;stroke:#000000;stroke-width:0.240004;stroke-opacity:0.0200803"
       d="m 25.598108,179.46019 294.577982,-190.099942 3.81826,6.463908 C 292.5628,13.967379 122.29266,123.98595 42.266877,173.14345 c -11.039259,6.78111 -12.278274,6.60954 -16.668769,6.31674 z"
       sodipodi:nodetypes="cccsc" />
    <path
       id="path17"
       style="fill:#e6e6e6;stroke:#000000;stroke-width:0.240004;stroke-opacity:0.0200803"
       d="m -16.813872,149.70048 294.577982,-190.099956 3.81826,6.463908 C 250.15083,-15.792344 79.88068,94.226233 -0.14510327,143.38373 -11.184362,150.16484 -12.423377,149.99329 -16.813872,149.70048 Z"
       sodipodi:nodetypes="cccsc" />
  </g>
  <g
     inkscape:label="Front"
     inkscape:groupmode="layer"
     id="g19">
    <rect
       style="fill:#ffffff;stroke:#000000;stroke-width:0.300171;stroke-opacity:0.0200803"
       id="rect870"
       width="196.71629"
       height="153.00233"
       x="29.698982"
       y="3.3296986"
       inkscape:label="rec" />
    <g
       id="g929"
       style="opacity:1"
       transform="matrix(1.1096935,0,0,1.159867,3.4990283,3.0728874)">
      <path
         style="color:#000000;font-style:normal;font-variant:normal;font-weight:normal;font-stretch:normal;font-size:medium;line-height:normal;font-family:sans-serif;font-variant-ligatures:normal;font-variant-position:normal;font-variant-caps:normal;font-variant-numeric:normal;font-variant-alternates:normal;font-variant-east-asian:normal;font-feature-settings:normal;font-variation-settings:normal;text-indent:0;text-align:start;text-decoration:none;text-decoration-line:none;text-decoration-style:solid;text-decoration-color:#000000;letter-spacing:normal;word-spacing:normal;text-transform:none;writing-mode:lr-tb;direction:ltr;text-orientation:mixed;dominant-baseline:auto;baseline-shift:baseline;text-anchor:start;white-space:normal;shape-padding:0;shape-margin:0;inline-size:0;clip-rule:nonzero;display:inline;overflow:visible;visibility:visible;isolation:auto;mix-blend-mode:normal;color-interpolation:sRGB;color-interpolation-filters:linearRGB;solid-color:#000000;solid-opacity:1;vector-effect:none;fill:#30a7d7;fill-opacity:1;fill-rule:nonzero;stroke:none;stroke-width:0.280628;stroke-linecap:butt;stroke-linejoin:miter;stroke-miterlimit:4;stroke-dasharray:none;stroke-dashoffset:0;stroke-opacity:1;color-rendering:auto;image-rendering:auto;shape-rendering:auto;text-rendering:auto;enable-background:accumulate;stop-color:#000000;stop-opacity:1"
         d="m 102.43155,57.840881 h 87.86435 c 4.14922,-0.03802 4.50911,0.779163 4.56237,3.632379 l -0.39204,33.398764 c -0.15505,4.706027 0.3346,5.733956 -5.49099,5.733956 H 103.8361 c -5.134453,-0.45205 -5.43293,-0.39383 -5.374714,-4.50553 L 98.37392,61.184896 c 0.02218,-2.867847 0.07861,-3.344015 4.05763,-3.344015 z"
         id="path931" />
      <path
         style="color:#000000;font-style:normal;font-variant:normal;font-weight:normal;font-stretch:normal;font-size:medium;line-height:normal;font-family:sans-serif;font-variant-ligatures:normal;font-variant-position:normal;font-variant-caps:normal;font-variant-numeric:normal;font-variant-alternates:normal;font-variant-east-asian:normal;font-feature-settings:normal;font-variation-settings:normal;text-indent:0;text-align:start;text-decoration:none;text-decoration-line:none;text-decoration-style:solid;text-decoration-color:#000000;letter-spacing:normal;word-spacing:normal;text-transform:none;writing-mode:lr-tb;direction:ltr;text-orientation:mixed;dominant-baseline:auto;baseline-shift:baseline;text-anchor:start;white-space:normal;shape-padding:0;shape-margin:0;inline-size:0;clip-rule:nonzero;display:inline;overflow:visible;visibility:visible;isolation:auto;mix-blend-mode:normal;color-interpolation:sRGB;color-interpolation-filters:linearRGB;solid-color:#000000;solid-opacity:1;vector-effect:none;fill:#000000;fill-opacity:0.0200803;fill-rule:nonzero;stroke:none;stroke-width:0.280628;stroke-linecap:butt;stroke-linejoin:miter;stroke-miterlimit:4;stroke-dasharray:none;stroke-dashoffset:0;stroke-opacity:1;color-rendering:auto;image-rendering:auto;shape-rendering:auto;text-rendering:auto;enable-background:accumulate;stop-color:#000000;stop-opacity:1"
         d="m 102.43164,57.701172 c -1.99511,0 -3.034631,0.100938 -3.607421,0.632812 -0.286395,0.265938 -0.432686,0.633273 -0.50586,1.097657 -0.07317,0.464383 -0.07844,1.034561 -0.08398,1.751953 l 0.08594,34.917968 c -0.01449,1.027112 -0.0075,1.800357 0.0957,2.398438 0.10334,0.599054 0.313578,1.033628 0.699218,1.335938 0.77128,0.604622 2.142513,0.684202 4.708983,0.910152 h 0.006 85.14453 c 1.46052,0 2.52956,-0.0623 3.32422,-0.23632 0.79465,-0.17405 1.32519,-0.46637 1.66211,-0.921879 0.33691,-0.455513 0.47317,-1.053735 0.54101,-1.822266 0.0678,-0.768531 0.0668,-1.714762 0.10547,-2.888672 v -0.002 l 0.39063,-33.402344 v -0.002 c -0.0134,-0.716127 -0.0443,-1.309612 -0.1543,-1.804687 -0.11002,-0.495076 -0.3035,-0.896047 -0.63672,-1.197266 -0.66618,-0.602203 -1.82783,-0.786506 -3.91015,-0.767578 z m 0,0.279297 h 87.86524 c 2.06536,-0.01893 3.15852,0.187313 3.72265,0.697265 0.28206,0.254976 0.44868,0.589403 0.55078,1.048828 0.1021,0.459426 0.13518,1.03952 0.14844,1.75 l -0.39258,33.394532 c -0.0387,1.176872 -0.0376,2.12238 -0.10351,2.86914 -0.066,0.747776 -0.20003,1.289965 -0.48828,1.679688 -0.28826,0.389722 -0.73927,0.648698 -1.4961,0.814458 -0.75683,0.16575 -1.8114,0.23046 -3.26367,0.23046 h -85.13867 c -2.55815,-0.22522 -3.903085,-0.34339 -4.548831,-0.849606 -0.323508,-0.253604 -0.497047,-0.60349 -0.59375,-1.164062 -0.0967,-0.560572 -0.106327,-1.323377 -0.0918,-2.34961 l -0.08789,-34.917968 c 0.0055,-0.715368 0.01412,-1.277996 0.08203,-1.708985 0.06799,-0.431479 0.190107,-0.722008 0.417969,-0.933593 0.455725,-0.423172 1.434062,-0.560547 3.417972,-0.560547 z"
         id="path933" />
    </g>
    <g
       id="g939"
       style="opacity:1;fill:#b3b3b3;fill-opacity:1"
       transform="matrix(0.75248836,0,0,1.159867,-39.081026,35.525337)">
      <path
         style="color:#000000;font-style:normal;font-variant:normal;font-weight:normal;font-stretch:normal;font-size:medium;line-height:normal;font-family:sans-serif;font-variant-ligatures:normal;font-variant-position:normal;font-variant-caps:normal;font-variant-numeric:normal;font-variant-alternates:normal;font-variant-east-asian:normal;font-feature-settings:normal;font-variation-settings:normal;text-indent:0;text-align:start;text-decoration:none;text-decoration-line:none;text-decoration-style:solid;text-decoration-color:#000000;letter-spacing:normal;word-spacing:normal;text-transform:none;writing-mode:lr-tb;direction:ltr;text-orientation:mixed;dominant-baseline:auto;baseline-shift:baseline;text-anchor:start;white-space:normal;shape-padding:0;shape-margin:0;inline-size:0;clip-rule:nonzero;display:inline;overflow:visible;visibility:visible;isolation:auto;mix-blend-mode:normal;color-interpolation:sRGB;color-interpolation-filters:linearRGB;solid-color:#000000;solid-opacity:1;vector-effect:none;fill:#b3b3b3;fill-opacity:1;fill-rule:nonzero;stroke:none;stroke-width:0.280628;stroke-linecap:butt;stroke-linejoin:miter;stroke-miterlimit:4;stroke-dasharray:none;stroke-dashoffset:0;stroke-opacity:1;color-rendering:auto;image-rendering:auto;shape-rendering:auto;text-rendering:auto;enable-background:accumulate;stop-color:#000000;stop-opacity:1"
         d="m 102.43155,57.840881 h 87.86435 c 4.14922,-0.03802 4.50911,0.779163 4.56237,3.632379 l -0.39204,33.398764 c -0.15505,4.706027 0.3346,5.733956 -5.49099,5.733956 H 103.8361 c -5.134453,-0.45205 -5.43293,-0.39383 -5.374714,-4.50553 L 98.37392,61.184896 c 0.02218,-2.867847 0.07861,-3.344015 4.05763,-3.344015 z"
         id="path935" />
      <path
         style="color:#000000;font-style:normal;font-variant:normal;font-weight:normal;font-stretch:normal;font-size:medium;line-height:normal;font-family:sans-serif;font-variant-ligatures:normal;font-variant-position:normal;font-variant-caps:normal;font-variant-numeric:normal;font-variant-alternates:normal;font-variant-east-asian:normal;font-feature-settings:normal;font-variation-settings:normal;text-indent:0;text-align:start;text-decoration:none;text-decoration-line:none;text-decoration-style:solid;text-decoration-color:#000000;letter-spacing:normal;word-spacing:normal;text-transform:none;writing-mode:lr-tb;direction:ltr;text-orientation:mixed;dominant-baseline:auto;baseline-shift:baseline;text-anchor:start;white-space:normal;shape-padding:0;shape-margin:0;inline-size:0;clip-rule:nonzero;display:inline;overflow:visible;visibility:visible;isolation:auto;mix-blend-mode:normal;color-interpolation:sRGB;color-interpolation-filters:linearRGB;solid-color:#000000;solid-opacity:1;vector-effect:none;fill:#b3b3b3;fill-opacity:1;fill-rule:nonzero;stroke:none;stroke-width:0.280628;stroke-linecap:butt;stroke-linejoin:miter;stroke-miterlimit:4;stroke-dasharray:none;stroke-dashoffset:0;stroke-opacity:1;color-rendering:auto;image-rendering:auto;shape-rendering:auto;text-rendering:auto;enable-background:accumulate;stop-color:#000000;stop-opacity:1"
         d="m 102.43164,57.701172 c -1.99511,0 -3.034631,0.100938 -3.607421,0.632812 -0.286395,0.265938 -0.432686,0.633273 -0.50586,1.097657 -0.07317,0.464383 -0.07844,1.034561 -0.08398,1.751953 l 0.08594,34.917968 c -0.01449,1.027112 -0.0075,1.800357 0.0957,2.398438 0.10334,0.599054 0.313578,1.033628 0.699218,1.335938 0.77128,0.604622 2.142513,0.684202 4.708983,0.910152 h 0.006 85.14453 c 1.46052,0 2.52956,-0.0623 3.32422,-0.23632 0.79465,-0.17405 1.32519,-0.46637 1.66211,-0.921879 0.33691,-0.455513 0.47317,-1.053735 0.54101,-1.822266 0.0678,-0.768531 0.0668,-1.714762 0.10547,-2.888672 v -0.002 l 0.39063,-33.402344 v -0.002 c -0.0134,-0.716127 -0.0443,-1.309612 -0.1543,-1.804687 -0.11002,-0.495076 -0.3035,-0.896047 -0.63672,-1.197266 -0.66618,-0.602203 -1.82783,-0.786506 -3.91015,-0.767578 z m 0,0.279297 h 87.86524 c 2.06536,-0.01893 3.15852,0.187313 3.72265,0.697265 0.28206,0.254976 0.44868,0.589403 0.55078,1.048828 0.1021,0.459426 0.13518,1.03952 0.14844,1.75 l -0.39258,33.394532 c -0.0387,1.176872 -0.0376,2.12238 -0.10351,2.86914 -0.066,0.747776 -0.20003,1.289965 -0.48828,1.679688 -0.28826,0.389722 -0.73927,0.648698 -1.4961,0.814458 -0.75683,0.16575 -1.8114,0.23046 -3.26367,0.23046 h -85.13867 c -2.55815,-0.22522 -3.903085,-0.34339 -4.548831,-0.849606 -0.323508,-0.253604 -0.497047,-0.60349 -0.59375,-1.164062 -0.0967,-0.560572 -0.106327,-1.323377 -0.0918,-2.34961 l -0.08789,-34.917968 c 0.0055,-0.715368 0.01412,-1.277996 0.08203,-1.708985 0.06799,-0.431479 0.190107,-0.722008 0.417969,-0.933593 0.455725,-0.423172 1.434062,-0.560547 3.417972,-0.560547 z"
         id="path937" />
    </g>
  </g>
</svg>
